<svg xmlns="http://www.w3.org/2000/svg" xmlns:xlink="http://www.w3.org/1999/xlink" width="500" zoomAndPan="magnify" viewBox="0 0 375 374.999991" height="500" preserveAspectRatio="xMidYMid meet" version="1.0"><path fill="#f48ca7" d="M 98.300781 63.28125 L 67.921875 85.367188 L 79.523438 121.085938 L 49.148438 99.007812 L 18.78125 121.085938 L 30.382812 85.367188 L 0 63.28125 L 37.550781 63.28125 L 49.148438 27.570312 L 60.75 63.28125 Z M 98.300781 63.28125 " fill-opacity="1" fill-rule="nonzero"/><path fill="#e15c63" d="M 372 138.613281 L 341.617188 160.6875 L 353.21875 196.414062 L 322.851562 174.339844 L 292.476562 196.414062 L 304.078125 160.6875 L 273.699219 138.613281 L 311.25 138.613281 L 322.851562 102.894531 L 334.449219 138.613281 Z M 372 138.613281 " fill-opacity="1" fill-rule="nonzero"/><path fill="#53b79a" d="M 350.476562 238.179688 C 327.195312 232.621094 303.914062 233.019531 280.636719 239.367188 C 270.457031 225.027344 258.335938 213.523438 244.078125 205.117188 L 234.792969 200.339844 C 233.328125 199.386719 214.195312 206.746094 212.683594 205.859375 L 191.570312 232.542969 L 211.53125 308.902344 C 219.613281 315.65625 226.867188 323.625 233.332031 332.734375 C 258.652344 325.832031 283.972656 325.96875 309.292969 333.148438 C 315.75 334.980469 322.582031 331.886719 325.621094 325.90625 L 359.851562 258.328125 C 363.988281 250.15625 359.378906 240.304688 350.476562 238.179688 Z M 350.476562 238.179688 " fill-opacity="1" fill-rule="nonzero"/><path fill="#e7f2f1" d="M 233.796875 220.921875 L 233.789062 220.914062 C 181.328125 224.714844 175.902344 245.734375 212.683594 282.199219 C 224.917969 290.273438 235.484375 300.769531 244.515625 313.496094 C 260.695312 296.621094 272.199219 278.179688 270.742188 255.402344 C 260.476562 240.933594 248.21875 229.347656 233.796875 220.921875 Z M 233.796875 220.921875 " fill-opacity="1" fill-rule="nonzero"/><path fill="#d6eae8" d="M 342.097656 254.769531 L 314.828125 312.160156 C 291.382812 306.203125 267.953125 306.636719 244.515625 313.496094 L 270.742188 255.402344 C 294.855469 249.390625 318.636719 249.171875 342.097656 254.769531 Z M 342.097656 254.769531 " fill-opacity="1" fill-rule="nonzero"/><path fill="#1ea6bc" d="M 165.457031 344.359375 L 172.441406 356.550781 L 140.761719 374.980469 L 133.792969 362.8125 C 128.460938 364.167969 122.878906 364.898438 117.136719 364.898438 C 111.382812 364.898438 105.800781 364.167969 100.476562 362.8125 L 93.503906 374.980469 L 61.828125 356.550781 L 68.8125 344.359375 C 61.050781 336.335938 55.230469 326.394531 52.140625 315.296875 L 38.199219 315.296875 L 38.199219 278.4375 L 52.140625 278.4375 C 55.230469 267.347656 61.050781 257.398438 68.8125 249.375 L 61.828125 237.191406 L 93.503906 218.761719 L 100.476562 230.933594 C 105.800781 229.566406 111.382812 228.839844 117.136719 228.839844 C 119.535156 228.839844 121.898438 228.964844 124.238281 229.214844 C 144.167969 235.261719 145.355469 246.449219 139.042969 259.175781 C 132.613281 255.371094 125.128906 253.1875 117.136719 253.1875 C 93.195312 253.1875 73.792969 272.742188 73.792969 296.867188 C 73.792969 320.992188 93.195312 340.546875 117.136719 340.546875 C 130.28125 340.546875 142.066406 334.648438 150.007812 325.335938 C 160.429688 318.984375 168.207031 322.941406 172.265625 336.121094 C 170.210938 339.046875 167.933594 341.800781 165.457031 344.359375 Z M 165.457031 344.359375 " fill-opacity="1" fill-rule="nonzero"/><path fill="#5d5560" d="M 139.574219 299.75 C 163.945312 289.578125 188.316406 289.578125 212.683594 299.75 C 212.683594 302.90625 212.28125 305.976562 211.53125 308.902344 C 207.464844 324.675781 193.164062 336.324219 176.128906 336.324219 C 174.824219 336.324219 173.535156 336.253906 172.265625 336.121094 C 163.574219 335.203125 155.796875 331.25 150.007812 325.335938 C 143.558594 318.742188 139.574219 309.707031 139.574219 299.75 Z M 139.574219 299.75 " fill-opacity="1" fill-rule="nonzero"/><path fill="#655f68" d="M 212.683594 282.199219 L 212.683594 299.75 L 139.574219 299.75 L 139.574219 265.148438 L 162.371094 254.164062 L 189.5 250.726562 L 212.683594 265.148438 Z M 212.683594 282.199219 " fill-opacity="1" fill-rule="nonzero"/><path fill="#ffc05a" d="M 176.128906 69.472656 C 130.273438 69.472656 93.832031 106.039062 93.832031 157.078125 C 93.832031 188.304688 110.949219 209.890625 124.238281 229.214844 C 131.296875 239.472656 137.28125 249.089844 139.042969 259.175781 C 139.386719 261.148438 139.574219 263.136719 139.574219 265.148438 L 212.683594 265.148438 C 212.683594 250.105469 222.976562 236.507812 233.789062 220.914062 C 237.269531 215.894531 240.808594 210.664062 244.078125 205.117188 C 252.058594 191.574219 258.425781 176.117188 258.425781 157.078125 C 258.425781 106.039062 221.984375 69.472656 176.128906 69.472656 Z M 176.128906 69.472656 " fill-opacity="1" fill-rule="nonzero"/><path fill="#f9b132" d="M 195.121094 161.070312 C 205.605469 163.179688 208.230469 194.171875 200.984375 230.300781 C 198.359375 243.367188 194.804688 255.320312 190.835938 265.148438 L 161.429688 265.148438 C 157.460938 255.320312 153.898438 243.367188 151.28125 230.300781 C 144.03125 194.171875 146.65625 163.179688 157.140625 161.070312 C 162.90625 159.917969 169.84375 167.726562 176.128906 180.996094 C 182.414062 167.726562 189.359375 159.917969 195.121094 161.070312 Z M 195.121094 161.070312 " fill-opacity="1" fill-rule="nonzero"/><path fill="#4aaf8f" d="M 230.753906 297.0625 L 230.753906 305.429688 C 230.753906 308.589844 230.347656 311.65625 229.597656 314.585938 C 228.796875 317.691406 227.601562 320.640625 226.058594 323.363281 C 221.550781 318.058594 216.710938 313.234375 211.53125 308.902344 C 212.28125 305.976562 212.683594 302.90625 212.683594 299.75 L 212.683594 282.199219 C 219.171875 286.480469 225.195312 291.441406 230.753906 297.0625 Z M 230.753906 297.0625 " fill-opacity="1" fill-rule="nonzero"/><path fill="#d6eae8" d="M 235.171875 253.023438 C 232.574219 258.582031 230.925781 264.160156 230.765625 269.9375 C 230.761719 270.238281 230.753906 270.535156 230.753906 270.835938 L 230.753906 297.0625 C 225.195312 291.441406 219.171875 286.480469 212.683594 282.199219 L 212.683594 265.148438 C 212.683594 250.105469 222.976562 236.507812 233.789062 220.914062 L 233.796875 220.921875 C 239.011719 223.96875 243.9375 227.425781 248.59375 231.285156 C 243.359375 238.796875 238.492188 245.902344 235.171875 253.023438 Z M 235.171875 253.023438 " fill-opacity="1" fill-rule="nonzero"/><path fill="#4aaf8f" d="M 259.101562 215.757812 C 256.738281 219.496094 254.28125 223.097656 251.859375 226.59375 C 250.761719 228.179688 249.667969 229.738281 248.59375 231.285156 C 243.9375 227.425781 239.011719 223.96875 233.796875 220.921875 L 233.789062 220.914062 C 237.269531 215.894531 240.808594 210.664062 244.078125 205.117188 C 249.375 208.242188 254.386719 211.789062 259.101562 215.757812 Z M 259.101562 215.757812 " fill-opacity="1" fill-rule="nonzero"/><path fill="#f9b132" d="M 224.808594 179.761719 C 223.945312 181.175781 224.394531 183.023438 225.808594 183.886719 C 226.296875 184.183594 226.835938 184.328125 227.367188 184.328125 C 228.378906 184.328125 229.367188 183.8125 229.929688 182.886719 C 235.933594 173.035156 239.105469 161.703125 239.105469 150.117188 C 239.105469 131.757812 231.121094 114.34375 217.199219 102.347656 C 215.945312 101.265625 214.050781 101.40625 212.96875 102.660156 C 211.886719 103.917969 212.027344 105.8125 213.285156 106.894531 C 225.882812 117.753906 233.105469 133.503906 233.105469 150.117188 C 233.109375 160.601562 230.238281 170.851562 224.808594 179.761719 Z M 224.808594 179.761719 " fill-opacity="1" fill-rule="nonzero"/><path fill="#f9b132" d="M 193.550781 89.550781 C 187.917969 87.929688 182.058594 87.105469 176.128906 87.105469 C 174.472656 87.105469 173.128906 88.449219 173.128906 90.109375 C 173.128906 91.765625 174.472656 93.109375 176.128906 93.109375 C 181.496094 93.109375 186.796875 93.851562 191.890625 95.320312 C 192.167969 95.398438 192.445312 95.4375 192.722656 95.4375 C 194.023438 95.4375 195.222656 94.578125 195.601562 93.265625 C 196.0625 91.671875 195.140625 90.007812 193.550781 89.550781 Z M 193.550781 89.550781 " fill-opacity="1" fill-rule="nonzero"/><path fill="#ffdbac" d="M 176.128906 53.292969 C 177.785156 53.292969 179.128906 51.949219 179.128906 50.292969 L 179.128906 3.058594 C 179.128906 1.398438 177.785156 0.0546875 176.128906 0.0546875 C 174.472656 0.0546875 173.128906 1.398438 173.128906 3.058594 L 173.128906 50.292969 C 173.128906 51.949219 174.472656 53.292969 176.128906 53.292969 Z M 176.128906 53.292969 " fill-opacity="1" fill-rule="nonzero"/><path fill="#ffdbac" d="M 106.472656 16.367188 C 105.519531 15.015625 103.644531 14.695312 102.292969 15.652344 C 100.941406 16.609375 100.621094 18.480469 101.578125 19.835938 L 128.832031 58.398438 C 129.414062 59.226562 130.34375 59.664062 131.285156 59.664062 C 131.882812 59.664062 132.488281 59.488281 133.011719 59.113281 C 134.367188 58.15625 134.6875 56.285156 133.730469 54.929688 Z M 106.472656 16.367188 " fill-opacity="1" fill-rule="nonzero"/><path fill="#ffdbac" d="M 219.246094 59.113281 C 219.773438 59.488281 220.378906 59.664062 220.976562 59.664062 C 221.917969 59.664062 222.84375 59.222656 223.429688 58.398438 L 250.683594 19.835938 C 251.640625 18.480469 251.320312 16.609375 249.96875 15.652344 C 248.617188 14.695312 246.742188 15.015625 245.785156 16.367188 L 218.53125 54.929688 C 217.574219 56.285156 217.894531 58.15625 219.246094 59.113281 Z M 219.246094 59.113281 " fill-opacity="1" fill-rule="nonzero"/><path fill="#ffdbac" d="M 47.257812 135.402344 C 46.179688 134.140625 44.285156 133.992188 43.027344 135.070312 C 41.765625 136.148438 41.621094 138.042969 42.699219 139.304688 L 65.769531 166.273438 C 66.363281 166.964844 67.203125 167.324219 68.050781 167.324219 C 68.738281 167.324219 69.433594 167.085938 70 166.601562 C 71.257812 165.523438 71.40625 163.628906 70.328125 162.367188 Z M 47.257812 135.402344 " fill-opacity="1" fill-rule="nonzero"/><path fill="#ffdbac" d="M 59.550781 193.4375 L 13.644531 179.496094 C 12.058594 179.011719 10.382812 179.910156 9.902344 181.496094 C 9.421875 183.082031 10.316406 184.757812 11.902344 185.238281 L 57.808594 199.179688 C 58.097656 199.269531 58.390625 199.3125 58.679688 199.3125 C 59.96875 199.3125 61.15625 198.476562 61.550781 197.179688 C 62.03125 195.59375 61.136719 193.917969 59.550781 193.4375 Z M 59.550781 193.4375 " fill-opacity="1" fill-rule="nonzero"/><path fill="#86cacf" d="M 307.234375 289.578125 C 294.332031 287.050781 281.933594 287.296875 270.390625 290.308594 C 268.785156 290.726562 267.828125 292.367188 268.246094 293.972656 C 268.597656 295.320312 269.8125 296.214844 271.144531 296.214844 C 271.394531 296.214844 271.652344 296.183594 271.90625 296.117188 C 282.570312 293.332031 294.070312 293.117188 306.082031 295.46875 C 307.710938 295.789062 309.285156 294.726562 309.605469 293.101562 C 309.921875 291.472656 308.863281 289.894531 307.234375 289.578125 Z M 307.234375 289.578125 " fill-opacity="1" fill-rule="nonzero"/><path fill="#86cacf" d="M 316.140625 267.808594 C 303.226562 265.277344 290.828125 265.519531 279.292969 268.535156 C 277.691406 268.953125 276.730469 270.589844 277.148438 272.195312 C 277.5 273.546875 278.714844 274.441406 280.046875 274.441406 C 280.300781 274.441406 280.554688 274.40625 280.808594 274.339844 C 291.464844 271.558594 302.964844 271.34375 314.988281 273.699219 C 316.613281 274.023438 318.1875 272.957031 318.507812 271.332031 C 318.824219 269.703125 317.765625 268.128906 316.140625 267.808594 Z M 316.140625 267.808594 " fill-opacity="1" fill-rule="nonzero"/><path fill="#86cacf" d="M 232.574219 267.539062 C 231.25 266.539062 229.882812 265.609375 228.507812 264.773438 C 227.089844 263.914062 225.246094 264.367188 224.386719 265.78125 C 223.527344 267.199219 223.976562 269.046875 225.394531 269.90625 C 226.597656 270.636719 227.796875 271.453125 228.960938 272.332031 C 232.492188 275 235.664062 278.261719 238.386719 282.023438 C 238.976562 282.832031 239.890625 283.261719 240.820312 283.261719 C 241.429688 283.261719 242.046875 283.078125 242.578125 282.691406 C 243.917969 281.71875 244.21875 279.839844 243.246094 278.5 C 240.171875 274.257812 236.582031 270.570312 232.574219 267.539062 Z M 232.574219 267.539062 " fill-opacity="1" fill-rule="nonzero"/><path fill="#86cacf" d="M 236.640625 250.410156 C 235.421875 249.71875 234.089844 249.042969 232.574219 248.339844 C 231.070312 247.644531 229.289062 248.296875 228.59375 249.800781 C 227.894531 251.308594 228.550781 253.089844 230.054688 253.789062 C 231.421875 254.421875 232.613281 255.027344 233.71875 255.648438 C 239.148438 258.65625 243.707031 262.472656 247.261719 267.003906 C 247.855469 267.757812 248.734375 268.152344 249.625 268.152344 C 250.273438 268.152344 250.925781 267.941406 251.476562 267.507812 C 252.777344 266.484375 253.003906 264.597656 251.980469 263.296875 C 247.925781 258.132812 242.761719 253.792969 236.640625 250.410156 Z M 236.640625 250.410156 " fill-opacity="1" fill-rule="nonzero"/></svg>